<svg width="48" height="48" viewBox="0 0 48 48" fill="none" xmlns="http://www.w3.org/2000/svg">
<g clip-path="url(#clip0_3013_8945)">
<path d="M48 0H0V48H48V0Z" fill="#5C00AD" fill-opacity="0.69"/>
<path d="M8.97188 12.8836H16.2059V34.3436H8.97188V12.8836Z" fill="white"/>
<path d="M30.5619 34.8358C28.2924 34.8358 26.2484 34.3608 24.4299 33.4118C22.6109 32.4613 21.1859 31.1328 20.1539 29.4258C19.1219 27.7193 18.6059 25.7828 18.6059 23.6158C18.6059 21.4493 19.1219 19.5128 20.1539 17.8058C21.1859 16.0993 22.6109 14.7708 24.4299 13.8198C26.2484 12.8693 28.2924 12.3938 30.5619 12.3938C32.6459 12.3938 34.5049 12.7618 36.1399 13.4978C37.7759 14.2338 39.1249 15.2968 40.1879 16.6858L35.6199 20.7638C34.2919 19.0878 32.7284 18.2498 30.9299 18.2498C29.4164 18.2498 28.1999 18.7358 27.2799 19.7078C26.3609 20.6788 25.9019 21.9813 25.9019 23.6158C25.9019 25.2508 26.3609 26.5533 27.2799 27.5238C28.1999 28.4948 29.4164 28.9798 30.9299 28.9798C32.7284 28.9798 34.2919 28.1418 35.6199 26.4658L40.1879 30.5438C39.1249 31.9348 37.7759 32.9978 36.1399 33.7338C34.5049 34.4683 32.6459 34.8358 30.5619 34.8358Z" fill="white"/>
</g>
<defs>
<clipPath id="clip0_3013_8945">
<rect width="48" height="48" rx="24" fill="white"/>
</clipPath>
</defs>
</svg>
